<?xml version="1.0" encoding="UTF-8" standalone="no"?>
<svg
   id="_レイヤー_1"
   data-name="レイヤー_1"
   viewBox="0 0 765.13727 613.59877"
   version="1.1"
   width="765.13727"
   height="613.59875"
   xmlns:xlink="http://www.w3.org/1999/xlink"
   xmlns="http://www.w3.org/2000/svg"
   xmlns:svg="http://www.w3.org/2000/svg">
  <defs
     id="defs14">
    <style
       id="style1">
      .cls-1 {
        fill: url(#_名称未設定グラデーション_82-2);
      }

      .cls-2 {
        fill: #fff;
      }

      .cls-3 {
        fill: #e6e6e4;
      }

      .cls-4 {
        fill: #131d15;
      }

      .cls-5 {
        fill: #bf021c;
      }

      .cls-6 {
        fill: #0c479c;
      }

      .cls-7 {
        fill: url(#_名称未設定グラデーション_82);
      }

      .cls-8 {
        fill: #d82e4d;
      }
    </style>
    <linearGradient
       id="_名称未設定グラデーション_82"
       data-name="名称未設定グラデーション 82"
       x1="578.78998"
       y1="395.12"
       x2="750.21002"
       y2="98.220001"
       gradientUnits="userSpaceOnUse">
      <stop
         offset=".42"
         stop-color="#0c479c"
         id="stop1" />
      <stop
         offset=".42"
         stop-color="#16468b"
         id="stop2" />
      <stop
         offset=".44"
         stop-color="#29456b"
         id="stop3" />
      <stop
         offset=".47"
         stop-color="#394450"
         id="stop4" />
      <stop
         offset=".49"
         stop-color="#47443a"
         id="stop5" />
      <stop
         offset=".52"
         stop-color="#514329"
         id="stop6" />
      <stop
         offset=".55"
         stop-color="#58431d"
         id="stop7" />
      <stop
         offset=".6"
         stop-color="#5c4316"
         id="stop8" />
      <stop
         offset=".74"
         stop-color="#5e4315"
         id="stop9" />
      <stop
         offset=".76"
         stop-color="#593f17"
         id="stop10" />
      <stop
         offset=".81"
         stop-color="#523a1b"
         id="stop11" />
      <stop
         offset=".93"
         stop-color="#51391d"
         id="stop12" />
      <stop
         offset=".94"
         stop-color="#4b3620"
         id="stop13" />
      <stop
         offset="1"
         stop-color="#4a3522"
         id="stop14" />
    </linearGradient>
    <linearGradient
       id="_名称未設定グラデーション_82-2"
       data-name="名称未設定グラデーション 82"
       x1="180.8"
       y1="395.12"
       x2="352.20999"
       y2="98.220001"
       gradientTransform="matrix(-1,0,0,1,609.6,0)"
       xlink:href="#_%E5%90%8D%E7%A7%B0%E6%9C%AA%E8%A8%AD%E5%AE%9A%E3%82%B0%E3%83%A9%E3%83%87%E3%83%BC%E3%82%B7%E3%83%A7%E3%83%B3_82" />
    <linearGradient
       xlink:href="#_%E5%90%8D%E7%A7%B0%E6%9C%AA%E8%A8%AD%E5%AE%9A%E3%82%B0%E3%83%A9%E3%83%87%E3%83%BC%E3%82%B7%E3%83%A7%E3%83%B3_82"
       id="linearGradient56"
       gradientUnits="userSpaceOnUse"
       x1="578.78998"
       y1="395.12"
       x2="750.21002"
       y2="98.220001" />
  </defs>
  <path
     class="cls-4"
     d="m 379.87718,592.00719 c 8.73,1.53 17.34,-0.14 25.99,-0.89 -1.41,6.49 -3.56,12.72 -6.8,18.51 -2.85,5.1 -7.74,5.34 -10.98,0.42 -3.66,-5.56 -5.88,-11.84 -8.21,-18.04 z"
     id="path21" />
  <path
     class="cls-3"
     d="m 526.88718,326.50719 c 1.79,-4.73 3.5,-9.36 5.32,-13.96 0.89,-2.24 3.03,-2.98 5.08,-3.67 19.33,-6.54 39.1,-11.77 58.08,-19.37 2.25,-0.9 3.02,-0.33 2.99,2.02 -0.02,1.89 -0.39,3.59 -1.44,5.19 -6.74,10.25 -14.73,18.6 -27.43,21.58 -11.77,2.76 -23.17,7.11 -35.36,8.1 -2.3,0.18 -4.57,0.7 -7.24,0.11 z"
     id="path27" />
  <path
     class="cls-3"
     d="m 245.18718,327.39719 c -14.07,-2.26 -27.5,-5.86 -40.6,-10.64 -12.12,-4.43 -21.53,-11.64 -24.11,-25.23 -0.38,-1.99 -1.3,-4.74 2.83,-3.2 15.11,5.62 30.27,11.12 45.41,16.67 0.31,0.11 0.62,0.25 0.92,0.39 16.15,7.57 12.57,3.24 15.54,22.02 z"
     id="path28" />
  <path
     class="cls-3"
     d="m 493.70718,279.65719 c -0.38,-0.01 -0.76,-0.03 -1.15,-0.04 0.14,-0.32 0.27,-0.63 0.41,-0.95 0.25,0.33 0.49,0.66 0.74,0.99 z"
     id="path29" />
  <g
     id="g36"
     transform="translate(-121.23281,-43.592812)">
    <path
       class="cls-7"
       d="m 780.54,156.57 c -1.95,1.44 -4.07,3.2 -6.02,4.63 l 0.82,-1.61 c 0,0 -12.7,10.56 -56.3,-10.51 -43.45,-20.58 -43.62,-38.51 -43.62,-38.51 v 0 c -0.05,-13.41 -3.81,-26.7 -12.11,-38.24 -21.39,-30.4 -63.02,-37.87 -93.74,-16.65 -31.4,24.13 -38.87,65.75 -17.48,96.16 8.62,12.52 20.99,20.87 34.52,25.35 l -1.29,0.15 c 0,0 17.25,4.35 21.36,52.7 4.27,48.03 -15.86,58.84 -15.86,58.84 l 2.1,-0.14 c -1.14,0.64 -2.27,1.27 -3.57,2.23 -30.56,20.9 -37.87,63.02 -16.48,93.42 21.39,30.4 63.02,37.87 93.74,16.65 22.76,-15.96 32.53,-43.02 27.42,-68.76 l 0.48,0.65 c 0,0 -4.2,-18.78 35.95,-46.55 31.54,-22.03 49.93,-18.31 56.05,-16 21.87,11.99 49.51,11.9 71.13,-3.42 30.4,-21.39 37.87,-63.02 16.65,-93.74 -21.39,-30.4 -63.18,-37.55 -93.74,-16.65 z m -26.48,71.68 c -0.86,5.65 -5.99,20.47 -36.23,41.54 -33.16,22.82 -49.79,20.41 -54.3,18.92 -4.98,-2.95 -10.13,-5.58 -15.77,-7.25 l 0.49,-0.16 c 0,0 -15.15,-4.49 -18.94,-51.87 -3.51,-42.37 7.91,-55.2 10.19,-57.28 2.11,-0.95 4.06,-2.39 6.01,-3.83 3.74,-2.55 7.32,-5.59 10.26,-8.96 6.48,-2.37 22.5,-4.33 54.85,10.98 32.35,15.31 39.81,30.89 41.36,38.17 -0.22,6.78 0.37,13.58 2.09,19.73 z"
       id="path35"
       style="fill:url(#linearGradient56)" />
    <path
       class="cls-2"
       d="m 555.01,131.83 c 10.11,27.07 37.94,41.7 62.57,33.18 -12.32,4.26 -28.88,-4.61 -40.38,-21.03 -0.79,-1.62 -2.69,-6.65 1.22,-10.33 0.16,-0.32 0.65,-0.48 0.81,-0.8 0.81,-0.8 1.47,-2.09 1.97,-3.05 3.29,-7.24 0.13,-15.35 -7.11,-18.64 -3.22,-1.64 -6.45,-1.67 -9.85,-0.57 -2.4,-21.51 5.68,-40.51 16.71,-44.62 l 0.16,-0.32 c -24.8,8.83 -36.37,38.63 -26.1,66.19 z M 578.2,364.4 c 10.11,27.07 37.94,41.7 62.57,33.18 -12.32,4.26 -28.88,-4.61 -40.38,-21.03 -0.79,-1.62 -2.69,-6.65 1.22,-10.33 0.16,-0.32 0.65,-0.48 0.81,-0.8 0.81,-0.8 1.47,-2.09 1.97,-3.05 3.29,-7.24 0.13,-15.35 -7.11,-18.64 -3.22,-1.64 -6.45,-1.67 -9.85,-0.57 -2.4,-21.51 5.68,-40.51 16.71,-44.62 l 0.16,-0.32 c -24.48,9 -36.37,38.63 -26.1,66.19 z M 768.44,227.89 c 10.11,27.07 37.94,41.7 62.57,33.18 -12.32,4.26 -28.88,-4.61 -40.38,-21.03 -0.79,-1.62 -2.69,-6.65 1.22,-10.33 0.16,-0.32 0.65,-0.48 0.81,-0.8 0.81,-0.8 1.47,-2.09 1.97,-3.05 3.29,-7.24 0.13,-15.35 -7.11,-18.64 -3.22,-1.64 -6.45,-1.67 -9.85,-0.57 -2.4,-21.51 5.68,-40.51 16.71,-44.62 l 0.16,-0.32 c -24.8,8.83 -36.37,38.63 -26.1,66.19 z"
       id="path36" />
  </g>
  <g
     id="g38"
     transform="translate(-121.23281,-43.592812)">
    <path
       class="cls-1"
       d="m 133.32,173.22 c -21.23,30.72 -13.76,72.35 16.65,93.74 21.62,15.33 49.26,15.41 71.13,3.42 6.12,-2.32 24.51,-6.03 56.05,16 40.15,27.77 35.95,46.55 35.95,46.55 l 0.48,-0.65 c -5.11,25.74 4.66,52.8 27.42,68.76 30.72,21.23 72.35,13.76 93.74,-16.65 21.39,-30.4 14.08,-72.51 -16.48,-93.42 -1.3,-0.96 -2.44,-1.59 -3.57,-2.23 l 2.1,0.14 c 0,0 -20.13,-10.81 -15.86,-58.84 4.11,-48.35 21.36,-52.7 21.36,-52.7 L 421,177.19 c 13.53,-4.48 25.91,-12.83 34.52,-25.35 21.39,-30.4 13.92,-72.03 -17.48,-96.16 C 407.32,34.45 365.69,41.92 344.3,72.33 336,83.87 332.23,97.16 332.19,110.57 v 0 c 0,0 -0.17,17.94 -43.62,38.51 -43.61,21.06 -56.3,10.51 -56.3,10.51 l 0.82,1.61 c -1.95,-1.44 -4.07,-3.2 -6.02,-4.63 -30.56,-20.9 -72.35,-13.76 -93.74,16.65 z m 122.31,35.3 c 1.55,-7.29 9.01,-22.86 41.36,-38.17 32.35,-15.31 48.36,-13.35 54.85,-10.98 2.94,3.37 6.52,6.41 10.26,8.96 1.95,1.44 3.9,2.87 6.01,3.83 2.28,2.08 13.7,14.91 10.19,57.28 -3.79,47.38 -18.94,51.87 -18.94,51.87 l 0.49,0.16 c -5.64,1.66 -10.79,4.29 -15.77,7.25 -4.51,1.49 -21.13,3.9 -54.3,-18.92 -30.24,-21.07 -35.38,-35.89 -36.23,-41.54 1.72,-6.16 2.31,-12.95 2.09,-19.73 z"
       id="path37"
       style="fill:url(#_%E5%90%8D%E7%A7%B0%E6%9C%AA%E8%A8%AD%E5%AE%9A%E3%82%B0%E3%83%A9%E3%83%87%E3%83%BC%E3%82%B7%E3%83%A7%E3%83%B3_82-2)" />
    <path
       class="cls-2"
       d="m 426.49,65.64 0.16,0.32 c 11.02,4.11 19.11,23.1 16.71,44.62 -3.4,-1.1 -6.63,-1.07 -9.85,0.57 -7.24,3.29 -10.4,11.4 -7.11,18.64 0.49,0.97 1.15,2.25 1.97,3.05 0.16,0.32 0.65,0.48 0.81,0.8 3.91,3.68 2.01,8.71 1.22,10.33 -11.49,16.42 -28.06,25.29 -40.38,21.03 24.64,8.51 52.46,-6.11 62.57,-33.18 10.26,-27.56 -1.3,-57.35 -26.1,-66.19 z m -23.2,232.57 0.16,0.32 c 11.02,4.11 19.11,23.1 16.71,44.62 -3.4,-1.1 -6.63,-1.07 -9.85,0.57 -7.24,3.29 -10.4,11.4 -7.11,18.64 0.49,0.97 1.15,2.25 1.97,3.05 0.16,0.32 0.65,0.48 0.81,0.8 3.91,3.68 2.01,8.71 1.22,10.33 -11.49,16.42 -28.06,25.29 -40.38,21.03 24.64,8.51 52.46,-6.11 62.57,-33.18 10.26,-27.56 -1.63,-57.19 -26.1,-66.19 z M 213.05,161.7 l 0.16,0.32 c 11.02,4.11 19.11,23.1 16.71,44.62 -3.4,-1.1 -6.63,-1.07 -9.85,0.57 -7.24,3.29 -10.4,11.4 -7.11,18.64 0.49,0.97 1.15,2.25 1.97,3.05 0.16,0.32 0.65,0.48 0.81,0.8 3.91,3.68 2.01,8.71 1.22,10.33 -11.49,16.42 -28.06,25.29 -40.38,21.03 24.64,8.51 52.46,-6.11 62.57,-33.18 10.26,-27.56 -1.3,-57.35 -26.1,-66.19 z"
       id="path38" />
  </g>
  <g
     id="g40"
     transform="translate(-115.31621,-44.776133)"
     style="fill:#0c479c;fill-opacity:1">
    <path
       class="cls-6"
       d="m 565.87,307.92 c -1.18,2.35 -2.36,5.09 -3.53,7.44 v -1.96 c 0,0 -7.07,16.46 -59.41,17.51 -51.96,1.44 -60.9,-15.84 -60.9,-15.84 v 0 c -6.61,-12.96 -16.74,-23.97 -30.39,-31.06 -35.5,-18.91 -79.28,-5.68 -98.51,29.97 -18.45,38.79 -5.28,82.75 30.22,101.67 14.43,7.88 30.44,9.88 45.68,7.56 l -1.17,0.78 c 0,0 18.76,-4.27 46.39,40.52 27.63,44.39 13.51,64.76 13.51,64.76 l 1.96,-1.17 c -0.78,1.17 -1.57,2.35 -2.35,3.92 -19.23,35.26 -5.66,79.62 29.84,98.53 35.5,18.91 79.28,5.68 98.51,-29.97 14.13,-26.64 10.3,-57.64 -7.23,-80.04 l 0.78,0.39 c 0,0 -13.24,-16.11 11.87,-62.73 19.62,-36.83 39.16,-42.27 46.2,-43.04 26.95,0.85 53.55,-12.81 66.89,-38.28 18.84,-35.65 5.66,-79.62 -29.84,-98.92 -35.5,-18.91 -79.28,-5.29 -98.51,29.97 z m 9.57,82.4 c 1.94,5.89 4.24,22.76 -14.59,58.02 -20.8,38.39 -38,44.23 -43.08,45.01 -6.25,-0.41 -12.5,-0.42 -18.75,0.74 l 0.39,-0.39 c 0,0 -16.8,3.1 -43.65,-40.9 -24.12,-39.28 -19.39,-57.32 -18.21,-60.45 1.57,-1.96 2.74,-4.31 3.92,-6.66 2.35,-4.31 4.32,-9.01 5.5,-13.72 5.09,-5.48 19.57,-15.25 58.24,-16.33 38.67,-1.08 53.49,10.33 58.55,16.62 3.11,6.68 7,12.96 11.67,18.07 z"
       id="path39"
       style="fill:#0c479c;fill-opacity:1" />
    <path
       class="cls-2"
       d="m 336.36,394.84 c 23,21.24 56.98,21.71 76.56,1.36 -9.79,10.18 -30.1,9.73 -49.22,-0.51 -1.56,-1.18 -5.85,-5.11 -3.88,-10.6 0,-0.39 0.39,-0.78 0.39,-1.18 0.39,-1.18 0.4,-2.74 0.4,-3.92 -0.37,-8.63 -7.39,-14.92 -15.98,-14.55 -3.91,0 -7.03,1.55 -9.78,4.29 -12.84,-19.64 -14.35,-42.01 -5.73,-51.4 v -0.39 c -19.58,20.74 -16.15,55.27 7.24,76.9 z m 136.21,213.72 c 23,21.24 56.98,21.71 76.56,1.36 -9.79,10.18 -30.1,9.73 -49.22,-0.51 -1.56,-1.18 -5.85,-5.11 -3.88,-10.6 0,-0.39 0.39,-0.78 0.39,-1.18 0.39,-1.18 0.4,-2.74 0.4,-3.92 -0.37,-8.63 -7.39,-14.92 -15.98,-14.55 -3.91,0 -7.03,1.55 -9.78,4.29 -12.84,-19.64 -14.35,-42.01 -5.73,-51.4 v -0.39 c -19.19,20.74 -16.15,55.27 7.24,76.9 z M 589.13,382.9 c 23,21.24 56.98,21.71 76.56,1.36 -9.79,10.18 -30.1,9.73 -49.22,-0.51 -1.56,-1.18 -5.85,-5.11 -3.88,-10.6 0,-0.39 0.39,-0.78 0.39,-1.18 0.39,-1.18 0.4,-2.74 0.4,-3.92 -0.37,-8.63 -7.39,-14.92 -15.98,-14.55 -3.91,0 -7.03,1.55 -9.78,4.29 -12.84,-19.64 -14.35,-42.01 -5.73,-51.4 V 306 c -19.58,20.74 -16.15,55.27 7.24,76.9 z"
       id="path40"
       style="fill:#0c479c;fill-opacity:1" />
    <ellipse
       style="fill:#0c479c;fill-opacity:1"
       id="path47"
       ry="57.391048"
       rx="60.349342"
       cy="574.50214"
       cx="504.09454" />
  </g>
  <path
     class="cls-4"
     d="m 407.99066,361.40731 c 0.31,-10.74 9.35,-19.32 20.18,-19.12 10.07,0.18 19.28,9.71 19.06,19.71 -0.25,11.27 -9.51,20.89 -19.97,20.75 -10.59,-0.14 -19.59,-10.11 -19.27,-21.33 z"
     id="path44" />
  <path
     class="cls-4"
     d="m 369.1303,361.88731 c 0,11.14 -9.8,21.14 -20.85,21.28 -9.38,0.12 -18.22,-10.54 -18.19,-21.93 0.03,-9.74 9.35,-18.74 19.56,-18.88 9.79,-0.14 19.48,9.58 19.48,19.54 z"
     id="path45" />
  <path
     style="fill:#0c479c;fill-opacity:1;stroke-width:1.18332"
     d="m 745.32759,435.43532 c 0.85421,-0.34183 1.87482,-0.29979 2.26803,0.0934 0.39321,0.39321 -0.30569,0.67288 -1.55311,0.6215 -1.3785,-0.0568 -1.65889,-0.33717 -0.71492,-0.71492 z"
     id="path54" />
  <path
     style="fill:#0c479c;fill-opacity:1;stroke-width:0.795425"
     d="m 376.84769,527.66035 c -17.7376,-1.74398 -34.02279,-7.30775 -41.07194,-14.03206 -3.35269,-3.1982 -3.79681,-4.15671 -3.79681,-8.1944 0,-4.21193 0.35247,-4.89479 4.46937,-8.6587 17.38124,-15.8909 72.23854,-19.23622 101.71802,-6.20297 7.35309,3.25089 13.24018,8.11422 14.61335,12.0721 l 0.78486,2.2622 -27.06817,0.15444 -27.06816,0.15442 27.08138,0.12312 27.08139,0.12313 -0.7667,2.52746 c -4.14498,13.66438 -40.73016,23.13672 -75.97659,19.67126 z"
     id="path55" />
  <g
     id="g42"
     transform="matrix(0.40882244,0,0,0.27125571,186.41783,333.97411)">
    <path
       class="cls-5"
       d="m 485.61,563.3 c 3.93,0.98 7.02,0.3 8.8,-3.86 0.64,-1.49 2.01,-2.68 3.32,-3.68 7.25,-5.52 11.69,-12.88 14.68,-21.35 1.18,-3.35 1.92,-6.67 1.93,-10.21 0,-3.47 -1.24,-6.18 -4.42,-7.75 -4.1,-2.03 -5.76,-5.7 -7.09,-9.77 -6.38,-19.38 -4.71,-38.67 0.59,-57.91 0.63,-2.28 0.99,-4.55 0.94,-6.88 -0.33,-13.96 1.78,-27.84 1.51,-41.79 -0.03,-1.63 1.17,-3.17 0.33,-4.85 0.93,-4.41 2.81,-8.4 5.39,-12.65 6.27,15.12 12.65,29.68 17.26,45 7.06,23.43 16.18,46.17 23.91,69.38 5.42,16.26 12.05,31.59 20.61,46.6 10.74,18.83 10.87,39.33 -0.74,58.86 -5.06,8.5 -11.27,15.66 -19.48,21.39 -8.94,6.24 -18.72,9.71 -29.28,11.48 -4.37,4.32 -10.13,3.06 -15.36,3.68 -3.78,0.45 -7.61,0.14 -10.63,-2.79 -9,-2.07 -17.86,-4.57 -25.79,-9.5 -11.13,-6.93 -20.23,-15.73 -25.14,-28.23 -1.15,-6.29 6.12,-13.27 13.84,-13.31"
       id="path41"
       style="fill:#bf021c" />
    <path
       class="cls-8"
       d="m 460.96,586.21 c -5.24,2.5 -13.41,6.89 -14.02,12.26 -2.16,-3.03 -3.06,-6.57 -4.03,-10.08 -0.37,-1.13 -0.45,-2.39 -1.51,-3.2 0.04,-0.66 0.08,-1.32 0.13,-1.98 -0.47,-8.86 -0.46,-17.69 1.34,-26.43 -0.11,-0.21 -0.06,-0.39 0.13,-0.52 1.53,-1.81 1.09,-4.23 1.93,-6.25 0.59,-3.14 1.51,-6.34 3.52,-8.71 10.01,-11.79 14.93,-25.84 20.16,-40.16 9.73,-26.62 18.9,-53.43 28.09,-80.23 2.96,-8.64 5.41,-17.44 9.48,-25.66 1.24,4.44 1.97,8.74 1.2,13.55 -1.1,6.83 -0.94,13.9 -1.03,20.81 -0.14,10.18 -1.52,19.98 -3.72,29.87 -3.81,17.13 -3.1,34.13 3.24,50.7 0.62,1.63 1.36,2.95 2.91,3.84 7.48,4.31 9.52,7.56 6.78,15.66 -2.83,8.35 -4.46,17.46 -12.52,23.46 -3.9,2.91 -5.36,8.93 -9.52,11.71"
       id="path42"
       style="fill:#d82e4d" />
  </g>
</svg>
